<?xml version="1.0" encoding="utf-8"?>
<!-- Generator: Adobe Illustrator 25.2.3, SVG Export Plug-In . SVG Version: 6.00 Build 0)  -->
<svg version="1.1" id="Calque_1" xmlns="http://www.w3.org/2000/svg" xmlns:xlink="http://www.w3.org/1999/xlink" x="0px" y="0px"
	 viewBox="0 0 59 190" style="enable-background:new 0 0 59 190;" xml:space="preserve">
<style type="text/css">
	.st0{fill:#7459A1;}
</style>
<g>
	<path class="st0" d="M31.56,79.78c0,0,1.86,55.42,4.95,73.85c2.1,12.49,1.18,29.75-7.48,29.7c-9.05-0.05-7.6-22.2-6.39-30.75
		c1.21-8.55,4.3-67.75,4.14-73.97c-0.16-6.22-3.03-10.39-5.54-14.87c-2.5-4.49-4.62-8.19-4.17-19.46
		c0.44-11.27,2.27-33.67,2.27-33.67l1.38,0.01L22,43.59c0,0,0.21,2.04,1.15,2.05c0.95,0.01,1.1-0.8,1.11-2.4
		c0.01-1.61,0.54-32.59,0.54-32.59l1.7,0.01l1.34,31.87c0,0,0.14,2.7,1.15,2.7c1.02,0.01,1.25-1.87,1.25-2.67
		c0.01-0.8,0.17-31.88,0.17-31.88l1.74,0.01l1.07,32.67c0,0,0.21,1.97,1.52,1.97C36.06,45.33,36,43.95,36,43
		c0-0.95-0.12-32.3-0.12-32.3l1.31,0.01c0,0,3.74,23.98,3.97,35.64c0.23,11.67-1.83,14.77-4.37,18.54
		C34.24,68.68,31.51,75.31,31.56,79.78z"/>
</g>
</svg>
