<?xml version="1.0" encoding="utf-8"?>
<!-- Generator: Adobe Illustrator 25.3.0, SVG Export Plug-In . SVG Version: 6.00 Build 0)  -->
<svg version="1.1" id="Calque_1" xmlns="http://www.w3.org/2000/svg" xmlns:xlink="http://www.w3.org/1999/xlink" x="0px" y="0px"
	 viewBox="0 0 66.3 473.6" style="enable-background:new 0 0 66.3 473.6;" xml:space="preserve">
<style type="text/css">
	.st0{fill:#9356DC;}
</style>
<g id="Calque_2_1_">
	<g id="Calque_1-2">
		<path class="st0" d="M39.8,189.7c0,0,5,152,13.4,202.5c5.7,34.2,3.2,81.6-20.6,81.4c-24.8-0.1-20.8-60.9-17.5-84.3
			s11.9-185.8,11.5-202.8s-8.3-28.5-15.1-40.8S-1.1,123.2,0.2,92.3S6.4,0,6.4,0h3.8l3.5,90.4c0,0,0.6,5.6,3.2,5.6s3-2.2,3-6.6
			s1.6-89.3,1.6-89.3h4.7l3.6,87.4c0,0,0.4,7.4,3.1,7.4s3.4-5.1,3.5-7.3s0.5-87.4,0.5-87.4h4.8l2.9,89.6c0,0,0.6,5.4,4.2,5.4
			s3.4-3.8,3.4-6.4S51.8,0.3,51.8,0.3h3.6c0,0,10.2,65.8,10.8,97.7s-5,40.5-12,50.8S39.7,177.4,39.8,189.7z"/>
	</g>
</g>
</svg>
