<?xml version="1.0" encoding="utf-8"?>
<!-- Generator: Adobe Illustrator 25.2.3, SVG Export Plug-In . SVG Version: 6.00 Build 0)  -->
<svg version="1.1" id="Calque_1" xmlns="http://www.w3.org/2000/svg" xmlns:xlink="http://www.w3.org/1999/xlink" x="0px" y="0px"
	 viewBox="0 0 59 190" style="enable-background:new 0 0 59 190;" xml:space="preserve">
<style type="text/css">
	.st0{fill:#9ED2C7;}
</style>
<g>
	<path class="st0" d="M26.87,75.38c0,0-1.48,47.32-3.32,67.37c-1.85,20.06-3.09,37.68,6.48,37.71c9.58,0.03,7.44-25.73,5.74-38.08
		c-1.71-12.35-4.93-56.8-3.95-66.99c0,0-0.06-1.22,2.15-2.55c2.21-1.32,5.85-4.3,7.74-7.32c1.88-3.02,15.16-24.08-3.59-50.61
		c0,0-9.59-13.05-18.76,0.35c0,0-19.62,27.18-1.25,51.15c0,0,4.38,4.91,6.38,6.09C26.03,73.39,26.73,74.22,26.87,75.38z"/>
</g>
</svg>
