<svg xmlns="http://www.w3.org/2000/svg" viewBox="0 0 37.77 171.26"><defs><style>.cls-1{fill:#9ed2c7;}</style></defs><g id="Calque_2" data-name="Calque 2"><g id="Calque_1-2" data-name="Calque 1"><path class="cls-1" d="M16.61,66.17s-1.47,47.32-3.32,67.38-3.09,37.67,6.49,37.71,7.44-25.73,5.74-38.08-4.94-56.8-4-67c0,0-.06-1.22,2.15-2.55a26.08,26.08,0,0,0,7.74-7.33c1.88-3,15.16-24.07-3.59-50.61,0,0-9.59-13-18.76.35,0,0-19.62,27.17-1.25,51.15,0,0,4.39,4.91,6.39,6.09C15.77,64.19,16.47,65,16.61,66.17Z"/></g></g></svg>